<?xml version="1.0" standalone="no"?>
<!DOCTYPE svg PUBLIC "-//W3C//DTD SVG 1.1//EN" "http://www.w3.org/Graphics/SVG/1.1/DTD/svg11.dtd">
<svg xmlns="http://www.w3.org/2000/svg">
<metadata>Generated by Fontastic.me</metadata>
<defs>
<font id="untitled-font-1" horiz-adv-x="512">
<font-face font-family="untitled-font-1" units-per-em="512" ascent="480" descent="-32"/>
<missing-glyph horiz-adv-x="512" />

<glyph glyph-name="balance-1" unicode="&#57344;" d="M489 342l3 2c8 8 12 19 12 30 0 23-19 42-42 42-11 0-22-4-30-12l-40-41 0 141-384 0 0-496 283 0 101 101 0 136 81 80c1 2 4 3 6 3 5 0 9-4 9-9 0-2-1-5-3-6l-67-67 12-12 67 67c4 5 7 11 7 18 0 10-6 19-15 23z m-193-75l0 141 48 0 0-93z m48 157l-96 0 0 32 96 0z m-112 0l-112 0 0 32 112 0z m-128 0l-48 0 0 32 48 0z m-48-16l48 0 0-160-48 0z m64 0l48 0 0-160-48 0z m64 0l48 0 0-160-48 0z m64 0l32 0 0-157-3-3-29 0z m6-217c0 4 2 8 3 12l34-34c-4-1-8-3-12-3l-30-5z m50-12l-37 37 133 133 37-37z m-8-144l0 69 69 0z m80 85l-96 0 0-96-256 0 0 464 352 0 0-141-16-16 0 141-320 0 0-240 221 0-7-7c-9-9-14-20-16-32l-7-50 50 7c12 2 23 7 32 16l63 63z m72 203l-37 37 33 32c5 5 11 8 18 8 14 0 26-12 26-26 0-7-3-13-8-18z m-320-171c4 0 8-4 8-8l16 0c0 10-7 19-16 23l0 17-16 0 0-16-16 0 0-24c0-13 11-24 24-24 4 0 8-4 8-8l0-8-8 0c-4 0-8 4-8 8l-16 0c0-10 7-19 16-23l0-17 16 0 0 16 16 0 0 24c0 13-11 24-24 24-4 0-8 4-8 8l0 8z m-40-24c0-4-4-8-8-8-4 0-8 4-8 8 0 4 4 8 8 8 4 0 8-4 8-8z m96 0c0-4-4-8-8-8-4 0-8 4-8 8 0 4 4 8 8 8 4 0 8-4 8-8z m-56 88c-49 0-88-39-88-88 0-49 39-88 88-88 49 0 88 39 88 88 0 49-39 88-88 88z m0-160c-40 0-72 32-72 72 0 40 32 72 72 72 40 0 72-32 72-72 0-40-32-72-72-72z m120 0l16 0 0-16-16 0z m0 32l16 0 0-16-16 0z m0 32l16 0 0-16-16 0z"/>
<glyph glyph-name="bank-1" unicode="&#57345;" d="M250 121l0 20c-12 0-24 4-31 9l5 13c7-4 18-8 29-8 14 0 24 8 24 20 0 11-8 17-23 23-20 8-33 18-33 35 0 17 12 29 30 33l0 20 13 0 0-20c12 0 20-3 26-7l-5-13c-4 2-13 7-25 7-16 0-22-9-22-17 0-11 8-16 25-23 21-9 31-19 31-37 0-16-11-31-31-34l0-21-13 0z m262 211l-512 0 256 172z m-460 16l408 0-204 137z m459-340l-510 0 0 64 510 0z m-494 16l478 0 0 32-478 0z m99 77l-65 0 0 205 65 0z m-49 16l33 0 0 173-33 0z m123-16l-64 0 0 205 64 0z m-48 16l32 0 0 173-32 0z m244-16l-64 0 0 205 64 0z m-48 16l32 0 0 173-32 0z m123-16l-65 0 0 205 65 0z m-49 16l33 0 0 173-33 0z m-241 291l14 0c6 0 11-1 14-2 3-2 4-5 4-9 0-3 0-5-2-7-1-2-3-3-5-3l0 0c3-1 5-2 7-4 1-2 1-4 1-7 0-4-1-8-4-10-3-2-7-3-12-3l-17 0z m9-18l6 0c3 0 4 1 6 1 1 1 1 3 1 4 0 2 0 4-2 4-1 1-3 1-6 1l-5 0z m0-7l0-12 7 0c2 0 4 0 6 1 1 1 1 3 1 5 0 4-2 6-8 6z m62-20l-4 10-16 0-4-10-10 0 16 46 12 0 16-46z m-6 19c-3 9-5 15-5 16-1 2-1 3-1 3-1-2-3-9-6-19z m63-19l-13 0-20 34 0 0c0-6 1-10 1-13l0-21-9 0 0 45 12 0 20-34 0 0c0 6 0 10 0 13l0 21 9 0z m48 0l-11 0-12 19-4-3 0-16-10 0 0 45 10 0 0-21 4 6 12 15 11 0-16-20z"/>
<glyph glyph-name="rent-1" unicode="&#57346;" d="M371 375l0 86c0 28-23 51-51 51l-68 0c-29 0-51-23-51-51l0-86c0-25 18-46 42-50l0-112c0-2 1-4 3-6l34-34c3-3 9-3 12 0l34 34c2 2 3 4 3 6l0 22 14 15c3 3 3 9 0 12l-11 11 11 11c3 3 3 9 0 12l-14 15 0 14c24 4 42 25 42 50z m-57-108l11-11-11-11c-2-2-3-4-3-6l0-22-17-17 0 107-17 0 0-107-17 17 0 107 51 0 0-17c0-2 1-4 3-6l11-11-11-11c-3-3-3-9 0-12z m6 74l-68 0c-19 0-34 16-34 34l0 86c0 19 15 34 34 34l68 0c19 0 34-15 34-34l0-86c0-18-15-34-34-34z m-9 137l-51 0c-14 0-25-12-25-26l0-17c0-5 4-8 8-8l86 0c4 0 8 3 8 8l0 17c0 14-11 26-26 26z m9-34l-68 0 0 8c0 5 4 9 8 9l51 0c5 0 9-4 9-9z m9-34l-86 0c-4 0-8-4-8-9l0-17c0-14 11-26 25-26l51 0c15 0 26 12 26 26l0 17c0 5-4 9-8 9z m-9-26c0-5-4-9-9-9l-51 0c-4 0-8 4-8 9l0 9 68 0z m134-247c-8 0-16-4-21-10-11 11-28 13-40 3-1-1-2-2-3-3-9 10-25 13-37 5-4 3-9 5-14 5l-47 0c-13 16-32 25-53 25l-15 0c-16 0-32-6-45-17-1 0-2 0-3 0l-59 0c0 5-4 9-9 9l-70 0c-4 0-8-4-8-9l0-136c0-5 4-9 8-9l138 0c5 0 9 4 9 9l0 7 110-16c0 0 0 0 1 0 0 0 1 0 1 0l120 15c13 2 25 9 31 20l17 29c1 0 1 1 1 1l14 32c6 15-1 31-15 37-3 2-7 3-11 3z m-354-120l-53 0 0 120 53 0z m68 0l-51 0 0 111 51 0z m226 80c0 0 1 1 1 1l6 15c2 4 6 6 10 6 6 0 11-4 11-11 0-1 0-3-1-4l-11-27-24 0z m-30-12l0 26c0 2 0 5-1 7 5 3 11 1 15-3 2-3 2-7 1-11 0 0 0 0 0 0l-12-27-11 0c4 0 8 4 8 8z m100 19l-14-32-16-28c-4-7-11-11-19-12l-119-15-111 16 0 92c9 13 24 20 39 20l15 0c17 0 32-8 41-22 2-2 4-4 7-4l52 0c2 0 5-1 7-3 1-2 1-3 1-5l0-17-95 0 0-17 72 0-2-5c-2-5 0-10 5-12 1 0 2 0 3 0l85 0c4 0 7 2 8 5l21 48c2 4 6 6 10 6 6 0 11-4 11-11 0-1 0-3-1-4z m-59 135l17 0 0-17-17 0z m-25-26l17 0 0-17-17 0z m51 0l17 0 0-17-17 0z m-26-25l17 0 0-17-17 0z m-281 281l17 0 0-17-17 0z m-26-25l17 0 0-17-17 0z m51 0l17 0 0-17-17 0z m-25-26l17 0 0-17-17 0z m298 17l17 0 0-17-17 0z m-17-17l17 0 0-17-17 0z m34 0l18 0 0-17-18 0z m-17-17l17 0 0-17-17 0z m-264-119l17 0 0-17-17 0z m-17-17l17 0 0-18-17 0z m34 0l17 0 0-18-17 0z m-17-18l17 0 0-17-17 0z"/>
<glyph glyph-name="cheque-1" unicode="&#57347;" d="M488 304l-40 0 0 152c0 22-18 40-40 40-22 0-40-18-40-40l0-40c-13 0-24-11-24-24l0-64c0-4 4-8 8-8 4 0 8 4 8 8l0 64c0 4 4 8 8 8l0-96-273 0c-4 20-23 34-43 32-20-2-36-19-36-40l0-240c0-22 18-40 40-40l400 0c4 0 8 4 8 8l0 24 24 0c4 0 8 4 8 8l0 240c0 4-4 8-8 8z m-104 152c0 13 11 24 24 24 13 0 24-11 24-24l0-8-48 0z m0-24l48 0 0-16-48 0z m0-32l48 0 0-192-48 0z m8-224l0 16 32 0 0-16z m22-16l-6-23-6 23z m-382 136c0 13 11 24 24 24 13 0 24-11 24-24l0-208c-14 11-34 11-48 0z m416-264l-392 0c-13 0-24 11-24 24 0 13 11 24 24 24 13 0 24-11 24-24 0-4 4-8 8-8l360 0z m32 32l-384 0 0 224 272 0 0-88c0-4 4-8 8-8l0-24c0-4 4-8 8-8l2 0 14-58c1-3 4-6 8-6 4 0 7 3 8 6l14 58 2 0c4 0 8 4 8 8l0 24c4 0 8 4 8 8l0 88 32 0z m-320 136c10 0 16-5 16-8 0-4 4-8 8-8 4 0 8 4 8 8 0 11-10 21-24 23l0 9c0 4-4 8-8 8-4 0-8-4-8-8l0-9c-14-2-24-12-24-23 0-13 14-24 32-24 10 0 16-5 16-8 0-3-6-8-16-8-10 0-16 5-16 8 0 4-4 8-8 8-4 0-8-4-8-8 0-11 10-21 24-23l0-9c0-4 4-8 8-8 4 0 8 4 8 8l0 9c14 2 24 12 24 23 0 13-14 24-32 24-10 0-16 5-16 8 0 3 6 8 16 8z m72 40l112 0c4 0 8 4 8 8 0 4-4 8-8 8l-112 0c-4 0-8-4-8-8 0-4 4-8 8-8z m0-32l112 0c4 0 8 4 8 8 0 4-4 8-8 8l-112 0c-4 0-8-4-8-8 0-4 4-8 8-8z m0-80l136 0c4 0 8 4 8 8 0 4-4 8-8 8l-136 0c-4 0-8-4-8-8 0-4 4-8 8-8z m144-16l-144 0c-4 0-8-4-8-8 0-4 4-8 8-8l144 0c4 0 8 4 8 8 0 4-4 8-8 8z m64 0c-4 0-8-4-8-8 0-4 4-8 8-8l16 0c4 0 8 4 8 8 0 4-4 8-8 8z"/>
<glyph glyph-name="balance-2" unicode="&#57348;" d="M9 0l196 0 0 17-188 0 0 401 17 0 0-341c0-5 4-9 9-9 6 0 13-2 18-7 5-5 7-12 7-18 0-5 4-9 9-9l128 0 0 17-121 0c-3 17-16 30-33 33l0 334 34 0c5 0 9 4 9 9l0 34 197 0c3-17 17-30 33-33l0-87 17 0 0 94c0 5-3 9-8 9-7 0-14 2-18 7-5 5-8 12-8 18 0 5-4 9-8 9l-205 0 0 17 264 0 0-154 17 0 0 162c0 5-3 9-8 9l-277 0c-1 0-2 0-3 0-3 0-6 0-8-3l-76-76c-3-2-3-5-3-8 0-1 0-2 0-3l0-413c0-5 4-9 9-9z m20 435l48 48 0-48z m223-129l-16 45c1 4 2 8 1 12 7 5 10 13 10 21 0 8-3 16-10 21 1 8-1 16-7 21-6 6-14 9-22 8-5 6-12 10-20 10-8 0-16-4-21-10-8 1-16-2-21-8-6-5-9-13-8-21-6-5-10-13-10-21 0-8 4-16 10-21 0-1 0-3 0-5l-18-52c-1-3 0-7 2-9 3-2 6-3 9-2l17 7 9-16c2-2 5-4 8-4l0 0c4 0 7 3 8 6l12 37c1 0 1-1 1-1l13-36c1-3 4-6 7-6l1 0c3 0 6 2 7 4l10 16 16-6c4-2 7-1 10 1 2 2 3 6 2 9z m-101 86c2 1 4 3 5 5 1 2 1 5 0 7-2 3-1 7 2 10 2 3 6 3 10 2 2-1 4-1 7 0 2 1 4 2 4 5 2 3 5 6 9 6 3 0 7-3 8-6 1-3 3-4 5-5 2-1 5-1 7 0 3 1 7 1 10-2 3-3 3-7 2-10-1-2-1-5-1-7 1-2 3-4 6-5 3-1 5-4 5-8 0-4-2-7-5-8-3-1-5-3-6-5 0-2 0-5 1-7 1-4 1-8-2-10-3-3-7-4-10-2-2 1-5 1-7 0-2-1-4-3-5-5-1-3-5-6-8-6-4 0-7 3-9 6-1 4-4 6-8 6-1 0-2 0-3-1-4-2-8-1-10 2-3 2-4 6-2 10 1 2 1 5 0 7-1 2-3 4-5 5-4 1-6 4-6 8 0 4 2 7 6 8z m12-81l-4 6c-2 4-6 6-10 4l-7-3 7 21c5-4 12-6 18-5 1-1 2-2 3-2z m60 10c-4 2-8 0-11-4l-3-6-6 18c2 2 4 3 5 5 5 0 11 1 15 3l6-19z m101 157l17 0 0-17-17 0z m-290-427l17 0 0-17-17 0z m43 205l34 0 0-17-34 0z m51 0l51 0 0-17-51 0z m-51-34l102 0 0-17-102 0z m0-34l68 0 0-17-68 0z m85 0l17 0 0-17-17 0z m-85-34l102 0 0-17-102 0z m119 0l26 0 0-17-26 0z m0 34l26 0 0-17-26 0z m0 34l26 0 0-17-26 0z m0 34l51 0 0-17-51 0z m-8-137c-14 0-26-11-26-25 0-14 12-26 26-26 14 0 25 12 25 26 0 14-11 25-25 25z m0-34c-5 0-9 4-9 9 0 5 4 8 9 8 4 0 8-3 8-8 0-5-4-9-8-9z m-94 17l51 0 0-17-51 0z m401-47l0 124c0 47-34 86-81 93l20 40c2 3 2 6 0 8-2 3-4 4-7 4l-120 0c-3 0-6-1-7-4-2-2-2-5 0-8l19-40c-46-7-80-46-80-93l0-124-9-10c-8-7-10-19-6-29 4-9 14-16 24-16l237 0c11 0 21 7 25 16 4 10 2 22-6 29z m-10-38l-237 0c-3 0-7 2-8 6-2 4-1 8 2 10l12 12c1 2 2 4 2 6l0 128c0 43 34 77 77 77 3 0 6 2 7 4 2 3 2 6 0 8l-19 39 92 0-20-39c-1-2-1-5 1-8 1-2 4-4 7-4 42 0 77-34 77-77l0-128c0-2 1-4 2-6l12-12c3-2 4-6 2-10-1-4-5-6-9-6z m-105 137l-26 0c-7 0-13 5-13 12 0 7 6 13 13 13l47 0 0 17-26 0 0 17-17 0 0-17-4 0c-16 0-30-13-30-30 0-16 14-29 30-29l26 0c7 0 13-6 13-13 0-7-6-13-13-13l-47 0 0-17 25 0 0-17 17 0 0 17 5 0c16 0 30 13 30 30 0 16-14 30-30 30z"/>
<glyph glyph-name="insurance-1" unicode="&#57349;" d="M117 285l-93 13 0 16 70-10c8-1 14-5 18-11z m-68-7l-6-47-19 3 0 48z m186-171l3 16-32 4c-9 1-15 10-14 18l3 16c0 4 2 8 6 11 3 2 7 3 12 3l23-4c-1 2-2 4-3 5-6 9-16 14-26 16l-32 4-119 17-15-111 48-7c8 27 34 44 61 40 28-4 49-27 49-55l24-4c4 0 8 3 9 7l1 8-24 3 3 16z m-136 67l-31 5 2 16 32-5z m-58 41l-16-111-1 0 0 113z m87 52l-63 9-6-47 102-15-33 54z m20-148c-2 0-4 1-5 1-9 0-17-3-24-9-9-6-14-15-16-26-3-22 12-42 34-45 22-3 42 12 45 34 3 22-12 42-34 45z m2-49l-16 3 2 16 16-3z m91 77c0 2 0 5 0 8l-31 4-2-16 32-4z m94 131l153 13 0 16-163-14c-9-1-17-6-21-15l-30-73c-1-2-1-5-2-8l28-14c2-1 3-3 4-6 0-2-1-5-2-7l-11-10 11-10c1-2 2-5 2-7 0-2-2-5-4-6l-28-17 1-8 24 2 1-16-24-2 1-8c0-2 1-4 3-5 1-2 3-2 5-2l25 2c1 28 23 50 51 53 28 2 53-16 59-43l49 4-10 111-134-11c0 0-1 0-1 0-5 0-9 2-12 5-3 3-5 8-4 12l7 44c2 11 11 19 22 20z m28-94l1-16-32-3-1 16z m27-74c-8 7-17 10-26 10-1 0-2 0-4 0-10-1-20-6-27-14-7-9-10-19-9-30 2-18 15-32 33-36 18-3 35 7 43 23 8 16 3 36-10 47z m-33-39l-2 16 16 1 1-15z m-75 103l-13 7c-1-8-1-16 0-24l1-19 13 8-9 8c-3 3-3 9 0 12z m206 37l0-112-5-1-10 112z m-159 44l-7-43 134 12-5 48-115-10c-3 0-6-3-7-7z m159 20l0-48-16-1-5 48z m-211 45l-29 0c-4 0-8 4-8 8l0 21-26-27c-3-3-9-3-12 0l-26 27 0-21c0-4-4-8-8-8l-21 0 11-10-6-6 8-8 104 0-6 6z m-83 64l16 0c0 3 2 6 4 8 10 10 10 27 0 37-2 2-4 5-4 8 0 3 2 6 4 9 5 4 8 11 8 18l-16 0c0-3-2-6-4-8-10-11-10-27 0-37 2-2 4-5 4-8 0-3-2-6-4-9-5-4-8-11-8-18z m48 16l16 0c0 3 2 6 4 8 10 10 10 27 0 37-2 2-4 5-4 8 0 3 2 6 4 9 5 4 8 11 8 18l-16 0c0-3-2-6-4-8-10-11-10-27 0-37 2-2 4-5 4-8 0-3-2-6-4-9-5-4-8-11-8-18z m20-162l-12-12-11 12-43-29-19 3-4 1 63 42c3 2 7 1 10-1z"/>
<glyph glyph-name="insurance-2" unicode="&#57350;" d="M68 179l2 16 32-5-3-15z m66-106l2 16 16-3-3-15z m363 203l-2 16-160-14c-11-1-20-9-22-20l-7-44c-1-4 1-9 4-12 3-3 7-5 12-5 0 0 1 0 1 0l134 11 10-111-49-4c-6 27-31 45-59 43-28-3-50-25-51-53l-25-2c-2 0-4 0-5 2-2 1-3 3-3 5l-1 8 24 2-1 16-24-2-1 8 28 17c2 1 4 4 4 6 0 2-1 5-2 7l-11 10 11 10c1 2 2 5 2 7-1 3-2 5-4 6l-28 14c1 3 1 6 2 8l30 73c4 9 12 14 21 15l164 15c2 0 4 0 6-1l2 16c-3 1-6 1-9 1l-165-15c-15-1-28-11-33-25l-31-73c-4-12-6-24-6-37-2 4-4 8-7 12-9 12-22 19-37 21l-13 2 43 29 11-12 12 12-16 16c-3 2-7 3-10 1l-58-39-53 86c-6 10-16 17-28 18l-80 11-2-15 80-12c7-1 13-5 17-11l5-8-100 14-2-16 34-5-6-47-26 4-2-16 26-4-16-111-8 1-2-16 72-10c0-31 25-55 56-55 25 0 46 16 53 40l25-4c1 0 2 0 3 0 12 0 22 9 24 21l7 50 4-44c1-13 11-22 24-22 0 0 1 0 2 0l24 2c6-25 29-43 55-43 1 0 3 0 5 0 27 2 49 25 51 53l77 6-2 16-12-1-10 112 24 2-2 16-24-2-4 48z m-256-129l-1-8-32 4 2 16 31-4c0-3 0-6 0-8z m-176 129l63-9 0 1 33-54-102 15z m117-202c-2-16-14-29-29-33-16-4-33 2-42 14-9 13-11 29-4 42 7 14 20 23 36 23 1 0 3-1 5-1 22-3 37-23 34-45z m41 2l-24 4c0 21-12 40-31 50-19 9-42 7-59-6-10-7-17-17-20-29l-48 7 15 111 119-17 32-4c12-2 23-9 29-21l-23 4c-9 1-17-5-18-14l-3-16c-1-8 5-17 14-18l32-4-3-16-23 3-3-16 24-3-1-8c-1-4-5-7-9-7z m59 98l-8-8c-3-3-3-9 0-12l9-8-13-8-1 19c-1 8-1 16 0 24z m122-91c2-22-15-41-37-43-22-2-41 14-43 36-2 22 14 42 36 44 2 0 3 0 4 0 21 0 38-16 40-37z m52 141l-134-12 7 43c1 4 4 7 7 7l115 10z m-125-43l32 3 1-16-32-3z m24-94l16 1 1-16-16-1z m-209 211l12 12-11 10 21 0c4 0 8 4 8 8l0 21 26-27c3-3 9-3 12 0l26 27 0-21c0-4 4-8 8-8l29 0-19-18 12-12 32 32c2 3 3 6 1 9-1 3-4 5-7 5l-40 0 0 32c0 3-2 6-5 7-3 2-6 1-9-1l-34-35-34 35c-3 2-6 3-9 1-3-1-5-4-5-7l0-32-32 0c-3 0-6-2-7-5-2-3-1-6 1-9z m48 86l16 0c0 3 2 6 4 8 10 10 10 27 0 37-2 2-4 5-4 8 0 3 2 6 4 9 5 4 8 11 8 18l-16 0c0-3-2-6-4-8-10-11-10-27 0-37 2-2 4-5 4-8 0-3-2-6-4-9-5-4-8-11-8-18z m48 16l16 0c0 3 2 6 4 8 10 10 10 27 0 37-2 2-4 5-4 8 0 3 2 6 4 9 5 4 8 11 8 18l-16 0c0-3-2-6-4-8-10-11-10-27 0-37 2-2 4-5 4-8 0-3-2-6-4-9-5-4-8-11-8-18z"/>
<glyph glyph-name="car-gps-1" unicode="&#57351;" d="M316 410c0 33-27 59-60 59-33 0-60-26-60-59 0-33 27-60 60-60 33 0 60 27 60 60z m-60-43c-24 0-43 19-43 43 0 23 19 42 43 42 24 0 43-19 43-42 0-24-19-43-43-43z m-57-230l-43 7c-5 0-10-1-14-4-3-4-5-8-5-13l0-16c0-9 7-17 17-17l42 0c10 0 17 8 17 17l0 10c0 8-6 15-14 16z m-45-26l0 16 42-6 0-10z m202 33l-43-7c-8-1-14-8-14-16l0-10c0-9 7-17 17-17l42 0c10 0 17 8 17 17l0 16c0 5-2 9-5 13-4 3-9 4-14 4z m2-33l-42 0 0 10 42 6z m-85 34l-34 0c-5 0-9-4-9-8 0-5 4-9 9-9l34 0c5 0 9 4 9 9 0 4-4 8-9 8z m0-34l-34 0c-5 0-9-4-9-9 0-4 4-8 9-8l34 0c5 0 9 4 9 8 0 5-4 9-9 9z m230-94l-112 0c2 6 2 5 2 44 10 4 17 14 17 24l0 52c0 11-5 21-12 29 9 6 14 18 11 29-4 11-14 18-25 18l-20 0-14 49c-6 18-21 32-40 36 37 63 34 59 35 60 25 43 15 98-24 130-38 32-94 32-132-1-38-32-47-88-21-130l34-59c-19-4-34-18-40-36l-14-49-20 0c-11 0-21-7-24-18-4-11 1-23 10-29-7-8-12-18-12-29l0-52c0-10 7-20 17-24 0-39 0-38 2-44l-112 0c-5 0-9-4-9-8 0-5 4-9 9-9l494 0c5 0 9 4 9 9 0 4-4 8-9 8z m-110 68c0-4-4-8-9-8l-256 0c-5 0-9 4-9 8l0 52c0 14 12 25 26 25l222 0c14 0 26-11 26-25z m-214-25l154 0c0-37-1-37 1-43l-156 0c2 6 1 5 1 43z m205 136c3 0 7-2 8-5 1-3 0-7-2-9-3-4-7-3-17-3l-4 17z m-201 169c-19 31-16 70 7 98 23 28 61 39 95 27 34-12 56-44 56-80 0-17-4-33-13-46l-72-125c-100 173-65 114-73 126z m-4-108c4 14 17 25 33 25l29-52c3-5 9-8 15-8 6 0 12 3 15 8l29 52c16 0 29-10 33-25l23-78-200 0z m-51-61l16 0-5-17c-11 0-14-1-17 3-2 2-3 6-2 9 2 3 5 5 8 5z m17-179c-5 0-8 4-8 9l0 34 25 0 0-34c0-5-4-9-8-9z m213 0c-4 0-8 4-8 9l0 34 25 0 0-34c0-5-3-9-8-9z m44 230c-4-3-6-8-4-12 2-4 7-6 12-4 31 17 51 49 51 85 0 35-20 68-51 84-5 2-10 1-12-4-2-4 0-9 4-11 26-14 42-40 42-69 0-29-16-56-42-69z m-19 119c-1-2-1-5-1-7 1-2 3-4 5-5 14-7 23-22 23-38 0-16-9-31-23-39-3-1-5-4-5-7 0-3 1-6 4-8 2-1 6-1 8 0 20 10 33 31 33 54 0 22-13 43-33 53-2 1-4 2-6 1-2-1-4-2-5-4z m-11-58c-4-2-6-6-5-10 1-3 5-6 8-6 11 3 19 13 18 24 0 9-5 18-14 23-4 2-9 0-11-4-2-4-1-9 4-11 3-2 4-5 4-8 0-4-2-7-4-8z m-270 92c-31-16-51-49-51-84 0-36 20-68 51-85 3-1 6-1 9 1 3 1 4 4 4 7 0 3-2 6-5 8-26 13-42 40-42 69 0 29 16 55 42 69 4 2 6 7 4 11-2 5-7 6-12 4z m16-138c4-2 9-1 11 4 2 4 1 9-4 11-14 8-23 23-23 39 0 16 9 31 23 38 3 2 5 4 5 7 0 3-1 6-4 8-2 2-6 2-8 0-20-10-33-31-33-53 0-23 13-44 33-54z m22 62c5 2 6 7 4 11-2 4-7 6-11 4-9-5-14-14-14-23 0-10 5-19 14-23 4-2 9-1 11 3 2 5 1 10-4 12-2 1-4 4-4 8 0 3 2 6 4 8z"/>
<glyph glyph-name="owner-1" unicode="&#57352;" d="M511 253c-2 19-56 0-56 0l-3-29c-1 1-2 2-3 2l-14 59c-5 28-26 49-57 48l-165 0c0 0 8-10 9-10l161 0c18 0 35-11 39-30l15-59c-1 0-2 0-3 0l-241 0c-1 0-2 0-3 0l7 31-8 7-11-46c-1 0-2-1-3-2l-3 29c0 0-14 5-28 8l0-37 28-1c-11-7-17-18-17-30l0-54c0-13 8-25 21-32l0-36c0-13 15-23 34-23 19 0 34 10 34 23l0 30 133 0 0-30c0-13 15-23 34-23 19 0 34 10 34 23l0 33c16 6 27 20 27 35l0 54c0 12-7 23-17 30l56 3c0 0 2 7 0 27z m-261-104l-62 0 0 30 62 0z m123 0l-111 0 0 13 111 0z m0 16l-111 0 0 13 111 0z m74-16l-61 0 0 30 61 0z m-317 278c0-21-17-38-38-38-21 0-38 17-38 38 0 21 17 38 38 38 21 0 38-17 38-38z m18-98l66-59 0 0c0 0 0 0 0 0 6-7 16-7 22 0 7 6 7 16 0 22 0 0 0 0 0 0l-62 62c-20 21-46 23-46 23l-76 0c-54-1-52-41-52-41l0-93 0 0c0 0 0-1 0-1 0-9 7-16 16-16 9 0 16 7 16 16 0 1 0 1 0 1l0 0 0 86 10 0 0-260c0-12 9-22 21-22 12 0 22 10 22 22l0 164 10 0 0-164 0 0c0-12 9-22 21-22 12 0 22 10 22 22l0 260z"/>
<glyph glyph-name="insurance-2-1" unicode="&#57353;" d="M226 400l-75-50-40 0c-1 0-2 0-3-1l-51-17c-3-1-6-4-6-8l0-51c0-5 4-8 9-8l35 0c4-24 27-38 50-34 17 4 30 17 33 34l147 0c0-1 0-1 0-1 4-19 22-34 42-34 3 0 6 1 9 1 16 4 29 17 33 34l9 0c2 0 4 0 5 1l34 26c3 1 4 4 4 7l0 34c0 3-3 7-6 8l-25 8-75 51c-2 1-3 1-5 1l-120 0c-1 0-3 0-4-1z m-89-153c-15 0-26 12-26 26 0 14 11 26 26 26 14 0 25-12 25-26 0-14-11-26-25-26z m41 35c-4 23-27 38-50 33-17-4-30-17-33-33l-27 0 0 17 17 0 0 17-17 0 0 2 44 15 161 0 0-23-21-28z m210-23c-7-12-23-15-35-7-12 7-15 23-8 35 4 6 10 10 17 11 1 0 3 1 5 1 14 0 26-12 26-26 0-5-2-10-5-14z m34 75c1 0 1-1 2-1l20-6 0-11-17 0 0-17 11 0-23-17-6 0c0 0 0 0 0 0-5 23-28 38-51 33-17-4-29-17-33-33l-52 0 15 20c2 2 2 3 2 5l0 26 60 0c1 0 2 0 3 0l47 16z m-106 50l31 0 35-23-34-11-32 0z m-17 0l0-34-117 0 51 34z m207 34l-247 93c-2 1-4 1-6 0l-247-93c-4-2-6-5-6-8l0-76c0-156 104-292 254-334 1 0 3 0 4 0 150 42 254 178 254 334l0 76c0 3-2 6-6 8z m-412-296c-3 4-7 8-10 12-18 24-32 50-43 77l23-14c1 0 3-1 4-1l26 0z m401 212c0-147-98-277-239-317-55 16-104 45-144 85l41 0 135-8c1 0 2 0 3 0 7 0 14 2 20 6l63 34c15 8 20 27 12 42 0 1-1 2-2 3-8 11-23 16-36 11l-32-12c0 0 0 1 0 1 0 14-12 26-26 26l-13 0-23 23c-2 1-4 2-7 2l-59 0c-2 0-3 0-4-1l-32-16-81 0-39 24c-10 31-15 64-15 97l0 70 239 90 239-90z m-384-215l0 77 34 0 0-77z m92 52l16 0 24-16c1-1 3-1 4-1l52 0c1 0 2 0 3 0l52 20c7 3 15-1 18-8 2-7 0-14-6-17l-63-34c-4-3-9-4-14-4l-127 8 0 81 28 13 54 0 23-23c2-1 4-2 6-2l17 0c5 0 9-4 9-9 0-5-4-8-9-8l-40 0-23 15c-2 1-3 2-5 2l-19 0c-4 0-8-4-8-9 0-5 4-8 8-8z m53-119l-47 24-8-15 51-26c3-1 5-1 8 0l51 26-8 15z m-3 417l-43-17 7-16 39 16 39-16 7 16-43 17c-2 1-4 1-6 0z"/>
<glyph glyph-name="maintenance-2" unicode="&#57354;" d="M149 193c-30 18-70 18-99 0-16-8-28-21-37-36-8-15-13-32-13-50 0-17 5-34 13-49 9-15 21-28 37-36 14-9 32-14 49-14 18 0 35 5 50 13 15 9 27 22 36 37 9 15 13 32 13 49 0 18-4 35-13 50-9 15-21 28-36 36z m-2-153l-8 14-14-8 8-14c-8-3-17-6-26-7l0 16-16 0 0-16c-9 1-18 4-26 7l8 14-14 8-8-14c-7 6-14 12-19 19l14 8-8 14-14-8c-4 9-6 17-7 26l16 0 0 17-16 0c1 9 3 17 7 25l14-8 8 15-14 8c5 7 12 13 19 18l8-14 14 9-8 14c8 3 17 6 26 6l0-16 16 0 0 16c9 0 18-3 26-6l-8-14 14-9 8 14c8-5 14-11 19-18l-14-8 8-15 14 8c4-8 6-16 7-25l-16 0 0-17 16 0c-1-9-3-17-7-26l-14 8-8-14 14-8c-5-7-11-13-19-19z m-48 109c-23 0-41-19-41-42 0-22 18-41 41-41 23 0 41 19 41 41 0 23-18 42-41 42z m0-66c-14 0-25 11-25 24 0 14 11 25 25 25 14 0 25-11 25-25 0-13-11-24-25-24z m-8 33l16 0 0-17-16 0z m421 141c0 2-1 4-1 5l-16 79c-4 21-20 38-40 44 10 9 16 22 16 36l0 33c0 13-5 26-15 35-9 10-22 15-35 15-27 0-49-22-49-50l-25 0 0-16 25 0 0-17c0-21 13-39 32-46l-75-75-75 12-29 65 41 65c17 28 48 45 81 45l0 17c-39 0-75-20-95-53l-72-116-122 115c-14 14-31 21-50 21l-8 0 0-300 14 15c22 24 53 37 85 37 8 0 15-1 23-2 43-9 78-42 89-84 2-10 4-19 4-30l0-24 180 0-6-27c0 0 0-1-1-1l-23-12c-6-3-10-9-10-16 0-10 8-19 19-19l121 0c10 0 17 8 17 17l0 226c0 2 0 4 0 6z m-104-191l4 18c5 3 9 9 9 15l-2 83c0 10-6 18-14 22l0 19c9 0 18 1 27 3 9-45 14-91 14-137l0-23z m40 163c16 3 32 8 47 14l0 0 0-177-33 0 0 23c0 47-4 94-14 140z m31 109l15-77-6-3c-16-7-33-12-51-15-11-2-23-3-34-3-1 4-2 8-4 12-2 7-6 12-10 18l64 64c6 6 9 14 9 22 0 3 0 6-1 8 9-6 16-15 18-26z m-91-114l0-16-74 14 0 17 72 0c1-3 2-6 2-9 0-2 0-4 0-6z m47 147c3-1 5-2 7-4 2-3 4-6 4-11 0-3-2-7-4-10l-65-64c-8 7-17 11-28 14l71 71c4 4 10 6 15 4z m-14 116c9 0 17-3 24-9 6-7 9-15 9-24l-66 0c0 18 15 33 33 33z m-33-66l0 17 66 0 0-17c0-18-15-33-33-33-18 0-33 15-33 33z m-173-61l19-45-40 7-2 1z m-169 78l123-116-26 0-30 23-81 81c-4 4-10 7-15 9l0 19c11-2 21-7 29-16z m-13-104c0-1 0-2 0-4l-16 0 0 87c1-1 2-2 3-3l51-51-9 0c-16 0-29-13-29-29z m29 13l25 0 15-14 14-11-54 0c-3 0-7 1-9 4 0 0-1 0-1 1-2 2-2 5-2 7 0 7 5 13 12 13z m-45-137l0 104 25 0c5-6 12-8 20-8l70 0c-1-24-6-46-14-68-6 1-13 1-19 1-30 0-59-10-82-29z m117 25c9 22 14 46 14 71l41 0 150-24c13-2 24-8 33-17 2-3 5-6 7-9l-82 0 0-48 98-18c4-1 7-4 7-8l1-33-178 0c-14 41-48 74-91 86z m95-103l175 0 1-33-174 0 0 8c0 9-1 17-2 25z m143-105c0 0 0 1 1 1l23 12c4 2 7 5 8 10l32 0-13-7c-6-3-10-9-10-16l0-2-39 0c-2 0-2 1-2 2z m57-2l0 2c0 0 1 1 1 1l22 11c5 3 8 6 9 11l34 0 0-25-66 0z"/>
<glyph glyph-name="maintenance-1" unicode="&#57355;" d="M324 220l77-14 0 17c0 6-1 11-2 16l-75 0z m132 129c3 3 5 7 5 11 0 8-7 15-16 15-4 0-8-1-11-4l-73-73c11-3 21-8 29-15z m-31-270l-3-19 39 0 0 23c0 48-5 95-14 142-10-2-19-3-29-3l0-19c9-5 15-13 15-24l2-85c0-7-4-13-10-15z m43 258l-66-67c7-9 12-19 14-31 31 1 60 7 88 19l7 3-16 79c-2 12-9 21-18 28 0-3 1-5 1-8 0-9-4-17-10-23z m-33 158c-19 0-34-15-34-34l68 0c0 19-15 34-34 34z m0-102c19 0 34 15 34 34l0 17-68 0 0-17c0-19 15-34 34-34z m-213-30l20-46 20-3-29 67 41 67c19 29 50 47 84 47l0 17c-40 0-77-20-98-55l-74-120 12-12z m-105-15l31-24 27 0-127 120c-9 9-20 14-31 16l0-19c6-2 12-5 16-10z m299-169c0 5-4 8-8 9l-101 18 0 50 84 0c-8 14-23 24-40 26l-155 25-43 0c-1-25-5-50-14-73 44-12 79-46 93-89l185 0z m-326 171l-26 0c-7 0-13-6-13-13 0-7 6-13 13-13l56 0-15 11z m377-318l-22-11c-1 0-1-1-1-2l0-2 68 0 0 26-35 0c-2-5-5-9-10-11z m44 211c-15-7-31-12-48-15 10-48 15-96 15-145l0-23 34 0 0 183z m-93-200c-2-5-5-8-9-10l-24-12c-1 0-1-1-1-2 0-1 1-2 2-2l41 0 0 2c0 7 4 14 10 17l13 7z m-384 294c0 17 14 30 30 30l9 0-52 52c-1 1-3 2-4 3l0-89 18 0c-1 1-1 3-1 4z m88-100c9 23 13 46 14 70l-72 0c-8 0-15 3-21 9l-26 0 0-107c24 19 54 30 85 30 7 0 13-1 20-2z m296-143l-1 34-181 0c2-8 3-17 3-26l0-8z m-316 34c-14 0-25-11-25-26 0-14 11-25 25-25 15 0 26 11 26 25 0 15-11 26-26 26z m9-34l-17 0 0 17 17 0z m-9 111c-56 0-102-46-102-103 0-56 46-102 102-102 57 0 103 46 103 102 0 57-46 103-103 103z m0-145c-23 0-42 19-42 42 0 24 19 43 42 43 24 0 43-19 43-43 0-23-19-42-43-42z"/>
<glyph glyph-name="rial-1" unicode="&#57356;" d="M256 512c-141 0-256-115-256-256 0-141 115-256 256-256 141 0 256 115 256 256 0 141-115 256-256 256z m0-489c-128 0-233 105-233 233 0 128 105 233 233 233 128 0 233-105 233-233 0-128-105-233-233-233z m0 444c-116 0-211-95-211-211 0-116 95-211 211-211 116 0 211 95 211 211 0 116-95 211-211 211z m0-415c-112 0-204 92-204 204 0 112 92 204 204 204 112 0 204-92 204-204 0-112-92-204-204-204z m-65 295l36 0 0-135c0-17-13-31-30-31-17 0-31 14-31 31 0 17 14 30 31 30l0 28c-33 0-59-26-59-58 0-33 26-59 59-59 32 0 58 26 58 59l0 163-64 0z m162-146c-6-7-14-13-24-16l5-10c2-4 2-8 1-12-2-4-5-8-9-9-5-3-12-2-17 2l-19-20c8-8 19-12 30-12 6 0 12 2 18 4 22 10 32 36 22 58z m7 33c0 4-1 8-2 12-2 7-5 13-10 19l-8 9-20-17 9-9c1-1 1-2 2-3 1-2 2-4 2-6 1-1 1-3 1-5 0-5-2-10-5-14-4-4-9-7-16-7-6 0-12 3-16 7-3 4-5 9-5 14l0 140-26 0 0-140c0-26 21-47 47-47 26 0 47 21 47 47z m-94-50c-3 0-6-1-8-3-2-2-3-5-3-8 0-3 1-5 3-7 2-3 5-4 8-4 3 0 6 1 8 4 2 2 3 4 3 7 0 3-1 6-3 8-2 2-5 3-8 3z m34-18c2 2 3 4 3 7 0 3-1 6-3 8-2 2-5 3-8 3-3 0-6-1-8-3-2-2-3-5-3-8 0-3 1-5 3-7 2-3 5-4 8-4 3 0 6 1 8 4z"/>
<glyph glyph-name="car-gps-2" unicode="&#57357;" d="M242 203l53 0c12 0 12 19 0 19l-53 0c-25 0-46 21-46 46 0 26 21 46 46 46l78 0c3 0 6 2 8 4 0 0 0 0 0 0 13 11 27 22 38 35 12 13 21 29 25 45 4 18 2 37-5 53-6 13-15 26-27 34-14 9-31 13-47 11-20-3-39-15-50-31-12-16-17-38-14-58 3-18 12-36 24-51 7-8 15-16 23-23l-53 0c-36 0-65-29-65-65 0-36 29-65 65-65z m26 198c-6 22 2 50 20 65 9 8 21 11 32 11 12 0 23-3 33-11l0 0c18-15 26-45 18-69-8-24-30-44-51-61-21 19-44 40-52 65z m137-179l-35 0c-12 0-12-19 0-19l35 0c28 0 51-23 51-51 0-28-23-51-51-51l-88 0c-4 20-22 35-43 35l-17 0-9 9c-21 23-52 36-83 36l-56 0c-10 0-18-8-18-18l0-27-12 0c-24 0-44-20-44-45 0-20 13-37 32-42 4-19 20-33 40-33 19 0 35 13 39 31l63 0c4-18 20-31 39-31 20 0 36 14 40 33 15 5 26 18 29 33l88 0c39 0 70 31 70 70 0 38-31 70-70 70z m-295-60l55 0c25 0 48-9 66-26l-121 0z m-3-127c-12 0-22 10-22 21 0 12 10 22 22 22 12 0 21-10 21-22 0-11-9-21-21-21z m141 0c-12 0-22 10-22 21 0 12 10 22 22 22 12 0 22-10 22-22 0-11-10-21-22-21z m38 34c-5 16-20 28-38 28-19 0-35-13-39-31l-63 0c-4 18-20 31-39 31-18 0-34-12-39-28-8 4-14 12-14 22 0 14 11 26 25 26l21 0 153 0c0 0 0 0 0 0l21 0c14 0 25-12 25-26 0-9-5-17-13-22z m70 354c0 20-16 36-36 36-20 0-36-16-36-36 0-19 16-36 36-36 20 0 36 17 36 36z m-53 0c0 10 8 17 17 17 10 0 17-7 17-17 0-9-7-17-17-17-9 0-17 8-17 17z m24-204c-4-4-4-10 0-13 3-4 9-4 13 0 4 3 4 9 0 13-3 4-10 4-13 0-2-2 2 2 0 0z m-79-153c-5 0-10-4-10-10 0-5 5-9 10-9 5 0 9 4 9 9 1 5-4 10-9 10z m-141 0c-5 0-10-4-10-10 0-5 5-9 10-9 5 0 9 4 9 9 0 5-4 10-9 10z"/>
<glyph glyph-name="balance-3" unicode="&#57358;" d="M273 372l-17 0 0 41 17 0 0 54-81 45-21 0-80-45 0-54 16 0 0-41-16 0 0-50 182 0z m-97 123l12 0 59-33-131 0z m-69-49l149 0 0-17-149 0z m132-33l0-41-16 0 0 41z m-33 0l0-41-16 0 0 41z m-33 0l0-41-16 0 0 41z m-33 0l0-41-16 0 0 41z m116-74l-149 0 0 16 149 0z m91-58l16 0 0 165-74 0 0-17 58 0z m0-264l-264 0 0 66-66 0 0 346 57 0 0 17-74 0 0-375 71-71 292 0 0 66-16 0z m-281 11l-38 38 38 0z m231 253c-59 0-107-48-107-108 0-59 48-107 107-107 59 0 108 48 108 107 0 60-49 108-108 108z m0-198c-50 0-91 40-91 90 0 51 41 91 91 91 50 0 91-40 91-91 0-50-41-90-91-90z m-16 132l33 0c9 0 16-8 16-17l17 0c0 18-15 33-33 33l-8 0 0 17-17 0 0-17-8 0c-18 0-33-15-33-33 0-18 15-33 33-33l33 0c9 0 16-7 16-16 0-9-7-17-16-17l-33 0c-9 0-17 8-17 17l-16 0c0-19 15-33 33-33l8 0 0-17 17 0 0 17 8 0c18 0 33 14 33 33 0 18-15 33-33 33l-33 0c-9 0-17 7-17 16 0 9 8 17 17 17z m204 24l-17-24-55 0 0-17 43 0-9-12 14-9 45 62-45 63-14-10 9-11-76 0 0-17 88 0z m27-107l0 17-68 0 9 11-14 10-45-63 45-62 14 9-9 12 68 0 0 17-80 0-17 24 17 25z m-330 0l0 17-43 0 8 11-13 10-45-63 45-62 13 9-8 12 84 0 0 17-96 0-18 24 18 25z m-40 54l13-9 45 62-45 63-13-10 8-11-67 0 0-17 79 0 18-25-18-24-79 0 0-17 67 0z"/>
<glyph glyph-name="performance" unicode="&#57359;" d="M280 152l16 0 0-16-16 0z m-32 0l16 0 0-16-16 0z m-32 0l16 0 0-16-16 0z m160 352c-40 0-76-19-100-48l-228 0c-22 0-40-18-40-40l0-272c0-22 18-40 40-40l134 0-12-48-34 0c-13 0-24-11-24-24l0-24 288 0 0 24c0 13-11 24-24 24l-34 0-12 48 134 0c22 0 40 18 40 40l0 232c0 71-57 128-128 128z m-96-320c-4 36-35 64-72 64-37 0-68-28-72-64l-32 0 0 10 19 4 1 5c2 4 4 9 6 13l2 4-10 17 25 25 17-10 4 2c4 2 9 4 13 6l5 1 4 19 36 0 4-19 5-1c4-2 9-4 13-6l4-2 17 10 25-25-10-17 2-4c2-4 4-9 6-13l1-5 19-4 0-10z m-17 0l-110 0c4 27 27 48 55 48 28 0 51-21 55-48z m43 28c-1 2-2 5-4 8l12 19-43 43-19-12c-3 2-6 3-8 4l-6 22-60 0-6-22c-2-1-5-2-8-4l-19 12-43-43 12-19c-2-3-3-6-4-8l-22-6 0-22-32 0 0 224 196 0c-2-10-4-21-4-32l0-8 16 0c5-58 53-104 112-104 31 0 60 13 80 34l0-114-128 0 0 22z m-31 213l14-8c-5-10-8-21-9-33l-16 0c1 15 5 28 11 41z m101-145c-50 0-92 39-96 88l16 0 0 8c0 44 36 80 80 80 44 0 80-36 80-80l0-8 16 0c-4-49-46-88-96-88z m8 192l0 16c15-1 28-5 41-11l-8-14c-10 5-21 8-33 9z m-16 0c-12-1-23-4-33-9l-8 14c13 6 26 10 41 11z m104-88c-1 12-4 23-9 33l14 8c6-13 10-26 11-41z m-3 55l-14-8c-7 9-15 17-24 24l8 14c11-8 22-19 30-30z m-156 30l8-14c-9-7-17-15-24-24l-14 8c8 11 19 22 30 30z m71-437l0-8-256 0 0 8c0 4 4 8 8 8l240 0c4 0 8-4 8-8z m-58 24l-140 0 12 48 116 0z m162 88c0-13-11-24-24-24l-416 0c-13 0-24 11-24 24l0 272c0 13 11 24 24 24l217 0c-3-5-5-10-8-16l-201 0c-9 0-16-7-16-16l0-224c0-9 7-16 16-16l400 0c9 0 16 7 16 16l0 135c9 14 14 31 16 49l0 0z m-104 215l0 81-16 0 0-81c-9-4-16-13-16-23 0-10 7-19 16-23l0-17 16 0 0 17c9 4 16 13 16 23 0 10-7 19-16 23z m-8-31c-4 0-8 4-8 8 0 4 4 8 8 8 4 0 8-4 8-8 0-4-4-8-8-8z m-280 32c-13 0-24-11-24-24 0-13 11-24 24-24 13 0 24 11 24 24 0 13-11 24-24 24z m0-32c-4 0-8 4-8 8 0 4 4 8 8 8 4 0 8-4 8-8 0-4-4-8-8-8z m64 32c-13 0-24-11-24-24 0-13 11-24 24-24 13 0 24 11 24 24 0 13-11 24-24 24z m0-32c-4 0-8 4-8 8 0 4 4 8 8 8 4 0 8-4 8-8 0-4-4-8-8-8z m64 32c-13 0-24-11-24-24 0-13 11-24 24-24 13 0 24 11 24 24 0 13-11 24-24 24z m0-32c-4 0-8 4-8 8 0 4 4 8 8 8 4 0 8-4 8-8 0-4-4-8-8-8z m200-112l16 0 0-16-16 0z m-80 0l64 0 0-16-64 0z m0 32l96 0 0-16-96 0z m73 153c2-3 4-7 5-11l15 4c-1 6-4 11-7 16z m-14 33l-6-15c4-2 8-4 11-7l11 12c-5 4-10 7-16 10z m-299-42l16 0 0-16-16 0z m-32 0l16 0 0-16-16 0z m64 0l16 0 0-16-16 0z"/>
<glyph glyph-name="car-parts-1" unicode="&#57360;" d="M487 512l-310 0c-11 0-20-7-23-17l-3-8-27 0c-14 0-25-11-25-25l0-10c-24-7-41-29-41-56 0-17 7-32 19-43-18-14-31-35-34-58-25-6-43-29-43-56 0-31 26-57 58-57l0-50 37 0c3-12 8-23 14-34l-26-26 47-47 26 26c11-6 22-11 34-14l0-37 66 0 0 37c12 3 23 8 34 14l26-26 47 47-26 26c6 11 11 22 14 34l37 0 0 66-37 0c-3 12-8 24-14 34l24 24 101 0 0 124 25 0c14 0 25 11 25 25l0 82c0 14-11 25-25 25z m-115-17c13 0 24-11 24-24 0-14-11-25-24-25-14 0-25 11-25 25 0 13 11 24 25 24z m-58 0l25 0c-5-6-9-15-9-24 0-23 19-42 42-42 9 0 17 4 24 9l0-58-82 0z m-68 0c-3-9-12-16-23-16-11 0-20 7-23 16z m-172-99c0 23 19 42 42 42 22 0 41-19 41-42 0-22-19-41-41-41-9 0-17 3-23 7l-1 1c0-1 0-1 0-1-11 8-18 20-18 34z m18-53c3 0 5-1 7-2l0-61c-10 10-24 17-39 17 4 19 16 36 32 46z m-34-145c-23 0-41 19-41 41 0 23 18 42 41 42 12 0 24-6 32-15l-7-7 26-27c-6-10-11-22-14-34z m281 59l-23-22 3-6c9-13 14-26 17-41l2-6 34 0 0-33-34 0-2-7c-3-14-8-28-17-41l-3-5 24-24-24-24-24 24-5-3c-13-9-26-14-41-17l-7-1 0-34-33 0 0 34-6 1c-15 3-28 8-41 17l-5 3-24-24-24 24 24 24-3 5c-9 13-14 27-17 41l-2 7-34 0 0 33 34 0 2 6c3 15 8 28 17 41l3 6-24 24 24 23 24-24 5 4c13 8 26 14 41 16l6 2 0 34 33 0 0-34 7-2c15-2 28-8 41-16l5-4 24 24 23-22z m107 16l-97 0-33 32-26-26c-11 6-22 11-34 14l0 37-66 0 0-37c-12-3-23-8-34-14l-26 26-14-14 0 48c31 0 57 26 57 57 0 32-26 58-57 58l0 8c0 5 3 9 8 9l39 0 6 19c1 3 5 5 8 5l6 0c3-18 20-33 40-33 20 0 37 15 40 33l34 0 0-91c-7 6-15 9-24 9-23 0-42-19-42-41 0-23 19-42 42-42 19 0 36 15 40 33l133 0z m-149 99c0-14-11-25-24-25-14 0-25 11-25 25 0 13 11 24 25 24 13 0 24-11 24-24z m198 33c0-5-3-9-8-9l-25 0 0 17-16 0 0-33-33 0 0 91c0 9-3 18-9 24l42 0 0-66 16 0 0 66 25 0c5 0 8-3 8-8z m-437-141c-14 0-25-11-25-25 0-13 11-24 25-24 13 0 25 11 25 24 0 14-12 25-25 25z m0-33c-5 0-8 4-8 8 0 5 3 9 8 9 4 0 8-4 8-9 0-4-4-8-8-8z m58 141c13 0 24 11 24 24 0 14-11 25-24 25-14 0-25-11-25-25 0-13 11-24 25-24z m0 33c4 0 8-4 8-9 0-4-4-8-8-8-5 0-9 4-9 8 0 5 4 9 9 9z m107-157c-46 0-83-37-83-83 0-45 37-82 83-82 16 0 31 4 44 12l-9 14c-10-6-22-10-35-10-36 0-66 30-66 66 0 37 30 66 66 66 36 0 66-29 66-66 0-17-7-34-19-46l12-12c15 16 24 36 24 58 0 46-37 83-83 83z m0-33c-27 0-50-23-50-50 0-27 23-49 50-49 27 0 50 22 50 49 0 27-23 50-50 50z m0-83c-18 0-33 15-33 33 0 18 15 33 33 33 18 0 33-15 33-33 0-18-15-33-33-33z"/>
<glyph glyph-name="license-plate-2" unicode="&#57361;" d="M477 380l-442 0 0-248 442 0z m-424-18l18 0 0-18-18 0z m18-212l-18 0 0 18 18 0z m35 62c15 0 26 12 26 26l18 0c0-24-20-44-44-44-24 0-44 20-44 44l0 36c0 24 20 44 44 44 24 0 44-20 44-44l-18 0c0 14-11 26-26 26-15 0-27-12-27-26l0-36c0-14 12-26 27-26z m62 53l53 0 0-18-53 0z m123 9c0-7-2-13-7-18 5-5 7-11 7-18l0-17c0-15-12-27-26-27l-44 0 0 18 44 0c5 0 9 4 9 9l0 17c0 5-4 9-9 9l-27 0 0 18 27 0c5 0 9 4 9 9l0 17c0 5-4 9-9 9l-44 0 0 18 44 0c14 0 26-12 26-27z m89-62l0-18-71 0 0 22 43 43c6 6 10 14 10 23 0 10-8 18-18 18-9 0-17-8-17-18l0-8-18 0 0 8c0 20 16 36 35 36 20 0 36-16 36-36 0-13-6-26-15-36l-35-34z m17 0l18 0 0 88-18 0 0 18 36 0 0-106 17 0 0-18-53 0z m62-62l-18 0 0 18 18 0z m0 194l-18 0 0 18 18 0z m53 71l-512 0 0-318 512 0z m-18-300l-476 0 0 282 476 0z"/>
<glyph glyph-name="license-plate-1" unicode="&#57362;" d="M109 273l-6-20 11 0z m63-19l-14 0 0-10 13 0c3 0 5 2 5 5 0 3-2 5-4 5z m-2 22l-12 0 0-9 11 0c3 0 5 0 5 4 0 3-2 5-4 5z m-170-106l0-3c0-25 20-45 45-45l422 0c25 0 45 20 45 45l0 3z m0 139l0-106 512 0 0 106z m120-79l-3 12-16 0-3-12-18 0 22 60 14 0 22-60z m51 0l-29 0 0 60 35 0c8 0 13-8 13-16 0-5-3-11-8-13 6-2 11-7 11-16 0-10-10-15-22-15z m54 0c-17 0-29 15-29 30 0 15 11 30 29 30 11 0 19-5 23-13l-13-9c-2 6-7 7-10 7-8 0-12-8-12-15 0-8 4-16 12-16 4 0 8 2 10 7l13-8c-3-8-14-13-23-13z m55 16l-27 0 0 14 27 0z m48-16l-39 0 0 14 12 0 0 31c-2-3-9-8-14-8l0 15c6 0 14 8 14 8l16 0 0-46 11 0z m51 0l-46 0c0 16 2 23 14 29 7 3 13 6 13 12 0 4-2 5-5 5-4 0-9-3-12-6l-10 11c4 5 13 9 24 9 14 0 22-7 22-19 0-9-5-13-12-18-5-2-10-5-10-9l22 0z m26-1c-9 0-16 3-19 10l8 11c0-1 3-6 10-6 4 0 8 1 8 5 0 4-6 6-16 6l-2 0 0 13 2 0c8 0 14 1 14 5 0 3-3 3-4 3-6 0-10-3-11-5l-10 12c4 5 13 7 21 7 12 0 21-7 21-16 0-6-4-11-10-12 7-1 11-8 11-15 0-13-12-18-23-18z m62 161l-422 0c-25 0-45-20-45-45l0-3 512 0 0 3c0 25-20 45-45 45z"/>
<glyph glyph-name="money-bag-1" unicode="&#57363;" d="M196 116c-8 0-15 6-15 15 0 8-7 15-15 15-8 0-15-7-15-15 0-20 12-37 30-43l0-13c0-8 7-15 15-15 8 0 15 7 15 15l0 13c17 6 30 23 30 43 0 24-20 45-45 45-8 0-15 6-15 15 0 8 7 15 15 15 8 0 15-7 15-15 0-9 7-15 15-15 8 0 15 6 15 15 0 19-13 36-30 42l0 22c0 8-7 15-15 15-8 0-15-7-15-15l0-22c-18-6-30-23-30-42 0-25 20-45 45-45 8 0 15-7 15-15 0-9-7-15-15-15z m-135-92c31-16 74-24 135-24 49 0 87 5 116 16 8-10 20-16 34-16l121 0c25 0 45 20 45 45 0 12-4 22-11 30 7 8 11 18 11 30 0 12-4 22-11 30 7 8 11 18 11 30 0 12-4 22-11 30 7 8 11 18 11 30 0 25-20 45-45 45l-121 0c-1 0-3 0-4 0-15 18-33 33-52 45 7 8 11 18 11 30 0 18-11 33-26 41l25 76c2 5 1 10-2 14-3 4-7 6-12 6l-48 0c-6 17-22 30-42 30-20 0-36-13-42-30l-48 0c-5 0-9-2-12-6-3-4-4-9-2-14l25-76c-15-8-26-23-26-41 0-12 4-22 11-30-60-36-102-105-102-180 0-52 21-89 61-111z m421 141c0-8-7-15-15-15l-121 0c-8 0-15 7-15 15 0 8 7 15 15 15l121 0c8 0 15-7 15-15z m0-60c0-8-7-15-15-15l-121 0c-8 0-15 7-15 15 0 8 7 15 15 15l121 0c8 0 15-7 15-15z m-15-75l-121 0c-8 0-15 7-15 15 0 8 7 15 15 15l121 0c8 0 15-7 15-15 0-8-7-15-15-15z m15 195c0-8-7-15-15-15l-121 0c-8 0-15 7-15 15 0 8 7 15 15 15l121 0c8 0 15-7 15-15z m-226 105l-120 0c0 0 0 0 0 0l0 0c-8 0-15 7-15 15 0 8 7 15 15 15l0 0c0 0 0 0 0 0l120 0c0 0 0 0 0 0l0 0c8 0 15-7 15-15 0-8-7-15-15-15l0 0c0 0 0 0 0 0z m-90 122c8 0 15 7 15 15 0 8 7 15 15 15 8 0 15-7 15-15l0-30c0-8 7-15 15-15 8 0 15 7 15 15l0 15 24 0-20-62-98 0-20 62z m-27-152l114 0c23-9 43-24 61-44-8-8-13-19-13-31 0-12 4-22 11-30-7-8-11-18-11-30 0-12 4-22 11-30-7-8-11-18-11-30 0-12 4-22 11-30-7-8-11-18-11-30 0 0 0-1 0-1-25-10-59-14-105-14-56 0-94 7-121 21-31 16-45 43-45 84 0 71 45 138 109 165z"/>
<glyph glyph-name="money-bag-2" unicode="&#57364;" d="M196 0c44 0 78 4 106 13-1 3-1 6-1 9 0 15 6 28 16 38-10 10-16 23-16 37 0 15 6 28 16 38-10 10-16 23-16 37 0 15 6 28 16 38-10 10-16 23-16 37 0 18 9 33 22 43-9 8-19 15-29 22 4 5 7 11 7 18 0 17-13 30-30 30l-150 0c-17 0-30-13-30-30 0-7 3-13 7-18-58-38-98-106-98-177 0-121 112-135 196-135z m0 146c-25 0-45 20-45 45 0 19 12 36 30 42l0 22c0 8 7 15 15 15 8 0 15-7 15-15l0-22c17-6 30-23 30-42 0-9-7-15-15-15-8 0-15 6-15 15 0 8-7 15-15 15-8 0-15-7-15-15 0-9 7-15 15-15 25 0 45-21 45-45 0-20-13-36-30-43l0-13c0-8-7-15-15-15-8 0-15 7-15 15l0 13c-18 6-30 23-30 43 0 8 7 15 15 15 8 0 15-7 15-15 0-9 7-15 15-15 8 0 15 6 15 15 0 8-7 15-15 15z m294-101l-136 0c-13 0-23-10-23-23 0-12 10-22 23-22l136 0c12 0 22 10 22 22 0 13-10 23-22 23z m0 75l-136 0c-13 0-23-10-23-23 0-12 10-22 23-22l136 0c12 0 22 10 22 22 0 13-10 23-22 23z m0 75l-136 0c-13 0-23-10-23-23 0-12 10-22 23-22l136 0c12 0 22 10 22 22 0 13-10 23-22 23z m0 75l-136 0c-13 0-23-10-23-23 0-12 10-22 23-22l136 0c12 0 22 10 22 22 0 13-10 23-22 23z m-252 212c-6 17-22 30-42 30-20 0-36-13-42-30l-48 0c-5 0-9-2-12-6-3-4-4-9-2-14l23-72 162 0 23 72c2 5 1 10-2 14-3 4-7 6-12 6z"/>
<glyph glyph-name="cars-1" unicode="&#57365;" d="M311 205l-19 59-1 1c-6 17-22 29-41 29l-139 0c-18 0-35-12-41-29l-19-61c-7-3-14-7-19-12-10-11-16-26-16-41l0-98c0-21 17-38 37-38 19 0 35 15 38 33l180 0c3-18 18-33 37-33 20 0 38 16 38 33l0 104c0 24-15 44-35 53z m-200 52l139 0c3 0 5-2 6-5l14-43-178 0 14 43c1 3 3 5 5 5z m197-152c0-11-8-19-18-19l-218 0c-10 0-19 8-19 19l0 46c0 11 9 20 19 20l218 0c10 0 18-8 18-19z m-169 43l85 0 0-38-85 0z m146-19c0-10-8-19-19-19-10 0-19 9-19 19 0 10 9 19 19 19 11 0 19-9 19-19z m-170 0c0-10-8-19-19-19-10 0-18 9-18 19 0 10 8 19 18 19 11 0 19-9 19-19z m301 104c-10 0-18 8-18 19 0 10 8 19 18 19 11 0 19-9 19-19 0-11-8-19-19-19z m-282 123c10 0 19-8 19-19 0-10-9-19-19-19-10 0-19 9-19 19 0 11 9 19 19 19z m-80-49c-1 2-1 4-1 6l0 43c0 15 6 29 17 40 5 6 11 10 18 13l20 57c6 18 22 30 41 30l139 0c18 0 35-12 41-30l4-15-40 0c-1 2-3 7-5 7l-139 0c-3 0-5-2-6-4l0 0-13-41 63 0c-3-5-6-11-8-17l0-1-7-19-68 0c-11 0-19-9-19-20l0-27c-14-4-27-11-37-22z m442-32l0-104c0-17-18-33-37-33-20 0-35 15-38 33l-39 0c-3 14-9 27-17 38l75 0c10 0 19 8 19 18l0 48c0 11-9 19-19 19l-121 0c-15 23-41 38-69 38l170 0-14 39c-1 3-3 5-6 5l-139 0c-2 0-4-2-5-5l-14-40-40 0 18 53c6 17 23 29 41 29l139 0c19 0 35-12 41-29l20-57c20-8 35-28 35-52z m-155-42l-12 38 45 0 0-38z"/>
<glyph glyph-name="settings-1" unicode="&#57366;" d="M439 100c-15 0-27-12-27-26 0-15 12-27 27-27 15 0 26 12 26 27 0 14-11 26-26 26z m0-37c-6 0-11 5-11 11 0 6 5 11 11 11 6 0 11-5 11-11 0-6-5-11-11-11z m71 12c0 20-8 37-23 50l-158 143 140 139c1 1 2 1 3 2l30 16c4 2 7 6 8 10 0 5-1 10-5 13l-34 34c-3 3-8 5-12 4-5-1-9-3-11-8l-16-30c-1-1-1-2-1-2l-66-66c-3-3-3-8 0-11 3-4 8-4 11 0l61 60 15-16-154-155-16 16 67 68c3 3 3 8 0 11-3 3-8 3-11 0l-49-49-53 48c15 44 4 92-29 125-33 33-84 44-128 27-3-1-4-3-5-6 0-2 0-5 2-7l62-61c2-2 3-5 3-7 0-3-1-5-3-7l-40-40c-2-2-4-3-7-3-3 0-5 1-7 3l-61 61c-2 2-5 3-8 3-2-1-4-3-5-5-17-45-7-95 27-129 32-32 79-43 122-29l41-45c-2-4-4-8-7-11-12-12-30-15-46-9-3 1-6 0-8-2l-96-96c-26-26-26-68 0-94 12-13 29-20 47-20 18 0 35 7 47 20l96 96c2 2 3 5 2 8-6 16-2 33 10 45 11 12 29 16 45 10 3-1 6-1 8 2l18 18c6 5 9 12 9 20 0 8-3 15-9 21l-7 7 9 10 159-143c11-10 17-24 18-39 0-15-6-29-16-40-11-11-25-16-40-16-15 0-29 7-39 18l-118 129c-3 3-8 3-11 0-3-3-3-8 0-11l118-129c13-14 30-22 50-23 0 0 1 0 1 0 19 0 37 8 50 21 14 14 21 32 20 51z m-64 367l15 28 32-32-28-15z m-279-151c-2 3-5 4-8 2-39-14-82-4-111 24-26 27-36 65-27 100l52-52c5-5 11-8 18-8 7 0 13 3 18 8l40 40c5 5 7 11 7 18 0 6-2 13-7 18l-53 52c36 9 74-1 100-27 30-30 39-74 23-113-1-3 0-7 2-9l57-51-7-8-8 8c-5 6-13 9-20 9-8 0-15-3-21-9l-18-18c-2-2-3-6-2-8 2-6 3-11 3-17z m138-81l-14-15c-20 6-42 0-58-15l0 0c-15-15-20-37-14-57l-93-92c-10-10-22-15-36-15-14 0-26 5-36 15-20 20-20 52 0 72l93 92c20-5 42 0 57 15 15 15 20 37 15 57l14 15c5 5 14 5 19 0l13-13 27-27 13-13c6-6 6-14 0-19z m-143-44c-3 3-8 3-11 0l-74-75c-3-3-3-8 0-11 1-1 3-2 5-2 2 0 4 1 6 2l74 75c3 3 3 8 0 11z m28-28c-3 3-8 3-11 0l-75-74c-3-3-3-8 0-11 2-2 4-2 6-2 2 0 4 0 5 2l75 74c3 3 3 8 0 11z"/>
<glyph glyph-name="inquiry-1" unicode="&#57367;" d="M145 145c-11 11-20 23-29 35l-33-33 64-64 33 33c-12 9-24 18-35 29z m-83-19l-49-49c-8-9-13-20-13-32 0-12 5-23 13-32 9-8 20-13 32-13 12 0 23 5 32 13l49 49z m248 386c-112 0-203-91-203-203 0-111 91-202 203-202 111 0 202 91 202 202 0 112-91 203-202 203z m0-360c-87 0-158 71-158 157 0 87 71 158 158 158 86 0 157-71 157-158 0-86-71-157-157-157z m0 285c-71 0-128-57-128-128 0-70 57-127 128-127 70 0 127 57 127 127 0 71-57 128-127 128z m15-220l-30 0 0 30 30 0z m21 102l-21-24 0-18-30 0 0 30 28 32c3 3 5 8 5 12 0 11-8 19-18 19-11 0-19-8-19-19l-30 0c0 27 22 49 49 49 26 0 48-22 48-49 0-12-4-23-12-32z"/>
<glyph glyph-name="control-1" unicode="&#57368;" d="M121 96c6 0 10 4 10 10l0 96c17 5 30 20 30 39 0 19-13 34-30 39l0 126c0 6-4 10-10 10-6 0-10-4-10-10l0-126c-17-5-30-20-30-39 0-19 13-34 30-39l0-96c0-6 4-10 10-10z m-20 145c0 11 9 20 20 20 11 0 20-9 20-20 0-11-9-20-20-20-11 0-20 9-20 20z m110-145c6 0 10 4 10 10l0 186c17 5 30 20 30 39 0 19-13 34-30 39l0 36c0 6-4 10-10 10-6 0-10-4-10-10l0-36c-17-5-30-20-30-39 0-19 13-34 30-39l0-186c0-6 4-10 10-10z m-20 235c0 11 9 20 20 20 11 0 20-9 20-20 0-11-9-20-20-20-11 0-20 9-20 20z m200 85c-6 0-10-4-10-10l0-96c-17-5-30-20-30-39 0-19 13-34 30-39l0-126c0-6 4-10 10-10 6 0 10 4 10 10l0 126c17 5 30 20 30 39 0 19-13 34-30 39l0 96c0 6-4 10-10 10z m20-145c0-11-9-20-20-20-11 0-20 9-20 20 0 11 9 20 20 20 11 0 20-9 20-20z m-120-129l0-36c0-6 4-10 10-10 6 0 10 4 10 10l0 36c17 5 30 20 30 39 0 19-13 34-30 39l0 186c0 6-4 10-10 10-6 0-10-4-10-10l0-186c-17-5-30-20-30-39 0-19 13-34 30-39z m10 59c11 0 20-9 20-20 0-11-9-20-20-20-11 0-20 9-20 20 0 11 9 20 20 20z m-35-191c0-6-4-10-10-10-6 0-10 4-10 10 0 6 4 10 10 10 6 0 10-4 10-10z m35-10l150 0c22 0 40 18 40 40l0 432c0 22-18 40-40 40l-390 0c-22 0-40-18-40-40l0-432c0-22 18-40 40-40l150 0c6 0 10 4 10 10 0 6-4 10-10 10l-150 0c-11 0-20 9-20 20l0 432c0 11 9 20 20 20l390 0c11 0 20-9 20-20l0-432c0-11-9-20-20-20l-150 0c-6 0-10-4-10-10 0-6 4-10 10-10z"/>
</font>
</defs>
</svg>
